{
    "asset" : {
        "generator" : "Khronos glTF Blender I/O v1.5.17",
        "version" : "2.0"
    },
    "scene" : 0,
    "scenes" : [
        {
            "name" : "Scene",
            "nodes" : [
                0,
                1,
                2
            ]
        }
    ],
    "nodes" : [
        {
            "name" : "Light",
            "rotation" : [
                0.16907575726509094,
                0.7558803558349609,
                -0.27217137813568115,
                0.570947527885437
            ],
            "translation" : [
                4.076245307922363,
                5.903861999511719,
                -1.0054539442062378
            ]
        },
        {
            "name" : "Camera",
            "rotation" : [
                0.483536034822464,
                0.33687159419059753,
                -0.20870360732078552,
                0.7804827094078064
            ],
            "translation" : [
                7.358891487121582,
                4.958309173583984,
                6.925790786743164
            ]
        },
        {
            "mesh" : 0,
            "name" : "NantVolume_v001",
            "rotation" : [
                0.7071068286895752,
                0,
                0,
                0.7071067094802856
            ],
            "scale" : [
                0.10000000149011612,
                0.10000000149011612,
                0.10000000149011612
            ]
        }
    ],
    "materials" : [
        {
            "doubleSided" : true,
            "name" : "Walls",
            "pbrMetallicRoughness" : {
                "baseColorFactor" : [
                    0.800000011920929,
                    0.800000011920929,
                    0.800000011920929,
                    1
                ],
                "metallicFactor" : 0,
                "roughnessFactor" : 0.5
            }
        },
        {
            "doubleSided" : true,
            "name" : "Plug",
            "pbrMetallicRoughness" : {
                "baseColorFactor" : [
                    0.800000011920929,
                    0.800000011920929,
                    0.800000011920929,
                    1
                ],
                "metallicFactor" : 0,
                "roughnessFactor" : 0.5
            }
        },
        {
            "doubleSided" : true,
            "name" : "Ceiling",
            "pbrMetallicRoughness" : {
                "baseColorFactor" : [
                    0.800000011920929,
                    0.800000011920929,
                    0.800000011920929,
                    1
                ],
                "metallicFactor" : 0,
                "roughnessFactor" : 0.5
            }
        }
    ],
    "meshes" : [
        {
            "name" : "NantVolume_v001",
            "primitives" : [
                {
                    "attributes" : {
                        "POSITION" : 0,
                        "NORMAL" : 1,
                        "TEXCOORD_0" : 2
                    },
                    "indices" : 3,
                    "material" : 0
                },
                {
                    "attributes" : {
                        "POSITION" : 4,
                        "NORMAL" : 5,
                        "TEXCOORD_0" : 6
                    },
                    "indices" : 7,
                    "material" : 1
                },
                {
                    "attributes" : {
                        "POSITION" : 8,
                        "NORMAL" : 9,
                        "TEXCOORD_0" : 10
                    },
                    "indices" : 11,
                    "material" : 2
                }
            ]
        }
    ],
    "accessors" : [
        {
            "bufferView" : 0,
            "componentType" : 5126,
            "count" : 2262,
            "max" : [
                7.729218006134033,
                6.478241443634033,
                -0.14991025626659393
            ],
            "min" : [
                -7.728323459625244,
                -9.658838272094727,
                -6.1499104499816895
            ],
            "type" : "VEC3"
        },
        {
            "bufferView" : 1,
            "componentType" : 5126,
            "count" : 2262,
            "type" : "VEC3"
        },
        {
            "bufferView" : 2,
            "componentType" : 5126,
            "count" : 2262,
            "type" : "VEC2"
        },
        {
            "bufferView" : 3,
            "componentType" : 5123,
            "count" : 6264,
            "type" : "SCALAR"
        },
        {
            "bufferView" : 4,
            "componentType" : 5126,
            "count" : 456,
            "max" : [
                8.728121757507324,
                10.631152153015137,
                -0.1499103307723999
            ],
            "min" : [
                -8.728120803833008,
                8.752006530761719,
                -5.649910926818848
            ],
            "type" : "VEC3"
        },
        {
            "bufferView" : 5,
            "componentType" : 5126,
            "count" : 456,
            "type" : "VEC3"
        },
        {
            "bufferView" : 6,
            "componentType" : 5126,
            "count" : 456,
            "type" : "VEC2"
        },
        {
            "bufferView" : 7,
            "componentType" : 5123,
            "count" : 2376,
            "type" : "SCALAR"
        },
        {
            "bufferView" : 8,
            "componentType" : 5126,
            "count" : 518,
            "max" : [
                7.799999713897705,
                9.58676815032959,
                -5.139327526092529
            ],
            "min" : [
                -7.800002098083496,
                -9.93120002746582,
                -6.349910736083984
            ],
            "type" : "VEC3"
        },
        {
            "bufferView" : 9,
            "componentType" : 5126,
            "count" : 518,
            "type" : "VEC3"
        },
        {
            "bufferView" : 10,
            "componentType" : 5126,
            "count" : 518,
            "type" : "VEC2"
        },
        {
            "bufferView" : 11,
            "componentType" : 5123,
            "count" : 2526,
            "type" : "SCALAR"
        }
    ],
    "bufferViews" : [
        {
            "buffer" : 0,
            "byteLength" : 27144,
            "byteOffset" : 0
        },
        {
            "buffer" : 0,
            "byteLength" : 27144,
            "byteOffset" : 27144
        },
        {
            "buffer" : 0,
            "byteLength" : 18096,
            "byteOffset" : 54288
        },
        {
            "buffer" : 0,
            "byteLength" : 12528,
            "byteOffset" : 72384
        },
        {
            "buffer" : 0,
            "byteLength" : 5472,
            "byteOffset" : 84912
        },
        {
            "buffer" : 0,
            "byteLength" : 5472,
            "byteOffset" : 90384
        },
        {
            "buffer" : 0,
            "byteLength" : 3648,
            "byteOffset" : 95856
        },
        {
            "buffer" : 0,
            "byteLength" : 4752,
            "byteOffset" : 99504
        },
        {
            "buffer" : 0,
            "byteLength" : 6216,
            "byteOffset" : 104256
        },
        {
            "buffer" : 0,
            "byteLength" : 6216,
            "byteOffset" : 110472
        },
        {
            "buffer" : 0,
            "byteLength" : 4144,
            "byteOffset" : 116688
        },
        {
            "buffer" : 0,
            "byteLength" : 5052,
            "byteOffset" : 120832
        }
    ],
    "buffers" : [
        {
            "byteLength" : 125884,
            "uri" : "data:application/octet-stream;base64,"
        }
    ]
}
